#!OML:ASF \\sashay\E\basketball\basketball\Project 1\Capture day 1\Session 1\Subject.ASF
:FULLY-SPECIFIED
:DEGREES
145
root -9.06733 13.9186 9.56985 -139.382 -78.2673 148.032
lowerback 25.9649 3.95899 -3.70914
upperback 8.41809 2.78767 -5.6885
thorax -4.91447 1.00822 -4.91756
lowerneck -5.04405 -6.08193 -13.1992
upperneck -13.6944 -6.40712 29.8956
head -1.26035 -4.05396 11.9339
rclavicle -5.96354e-015 -4.6118e-014
rhumerus -10.6793 -12.3867 -50.5278
rradius 83.2619
rwrist -19.0147
rhand -36.6763 53.7582
rfingers 7.12502
rthumb -9.76233 24.0045
lclavicle -5.96354e-015 -4.6118e-014
lhumerus -41.2661 4.02078 74.2891
lradius 81.3758
lwrist 21.9683
lhand -23.2161 10.4751
lfingers 7.12502
lthumb 3.23439 40.4303
rfemur -25.2278 -27.1676 -11.2249
rtibia 82.2383
rfoot 8.8004 -12.1901
rtoes -30.9137
lfemur -25.4864 29.5014 -5.07096
ltibia 53.8019
lfoot -20.4293 -6.74615
ltoes -18.5058
146
root -8.86214 13.8309 9.6921 -140.745 -77.26 149.829
lowerback 26.0825 4.24028 -3.98194
upperback 8.54204 3.00814 -5.99174
thorax -4.81546 1.10027 -5.16821
lowerneck -2.68737 -5.27012 -14.5062
upperneck -17.4207 -4.69084 32.1519
head -2.951 -3.70112 13.5748
rclavicle -1.19271e-014 5.52621e-014
rhumerus -10.9517 -14.1488 -51.7618
rradius 84.7637
rwrist -18.5846
rhand -37.1961 54.8733
rfingers 7.12502
rthumb -10.2638 25.1437
lclavicle -1.19271e-014 5.52621e-014
lhumerus -38.8883 5.29071 74.6229
lradius 82.3089
lwrist 21.7429
lhand -23.8757 11.2039
lfingers 7.12502
lthumb 2.59737 41.1678
rfemur -25.39 -26.1971 -11.1895
rtibia 80.8378
rfoot 7.40807 -12.4711
rtoes -38.2835
lfemur -28.4517 31.7977 -6.11435
ltibia 56.7056
lfoot -19.3905 -6.97136
ltoes -16.5145
147
root -8.6395 13.7256 9.80091 -140.68 -76.3641 149.915
lowerback 27.0912 4.56185 -4.62985
upperback 8.54513 3.08967 -6.19061
thorax -5.31528 1.11284 -5.1163
lowerneck -3.53508 -5.45529 -14.6121
upperneck -18.1787 -4.77758 32.5718
head -2.95057 -3.78186 13.7871
rclavicle 1.55052e-014 2.22639e-014
rhumerus -11.6009 -15.7565 -52.8971
rradius 86.408
rwrist -18.0925
rhand -37.81 56.1967
rfingers 7.12502
rthumb -10.856 26.4973
lclavicle 1.55052e-014 2.22639e-014
lhumerus -36.7803 6.55175 75.1647
lradius 83.691
lwrist 21.3553
lhand -24.7299 12.1446
lfingers 7.12502
lthumb 1.77243 42.117
rfemur -25.1983 -25.5509 -11.5112
rtibia 79.5842
rfoot -3.02424 -15.2196
rtoes -31.134
lfemur -31.1916 33.4432 -7.36277
ltibia 59.2954
lfoot -18.3725 -8.45047
ltoes -14.7734
148
root -8.42065 13.6244 9.90342 -140.965 -75.6593 150.284
lowerback 28.8562 4.89227 -5.43272
upperback 7.95264 3.07845 -6.12217
thorax -6.87417 1.09903 -4.73567
lowerneck -3.4003 -5.44011 -14.538
upperneck -19.1069 -4.62574 32.5951
head -3.28136 -3.79764 13.8759
rclavicle -1.11319e-014 3.93594e-014
rhumerus -13.2004 -16.4238 -53.4913
rradius 88.1192
rwrist -17.9068
rhand -38.4876 58.0356
rfingers 7.12502
rthumb -11.5095 28.3716
lclavicle -1.11319e-014 3.93594e-014
lhumerus -35.9273 7.90818 75.821
lradius 85.4005
lwrist 20.7613
lhand -25.7023 12.8113
lfingers 7.12502
lthumb 0.833307 42.7894
rfemur -24.7981 -25.2121 -11.5065
rtibia 78.3511
rfoot -11.1067 -15.0957
rtoes -36.7154
lfemur -33.4349 34.5223 -8.32066
ltibia 61.3919
lfoot -18.6976 -9.78946
ltoes -14.7296
149
root -8.21766 13.5718 10.0035 -141.932 -75.0192 151.417
lowerback 29.6406 5.1522 -5.71917
upperback 8.11234 3.19195 -6.16777
thorax -7.07298 1.1311 -4.71239
lowerneck -3.06272 -5.34237 -14.6382
upperneck -21.2789 -4.16178 32.89
head -4.07468 -3.78297 14.283
rclavicle 2.22639e-014 -1.00585e-013
rhumerus -13.9279 -17.7997 -54.448
rradius 89.5369
rwrist -17.7248
rhand -39.3028 60.0436
rfingers 7.12502
rthumb -12.2956 30.4251
lclavicle 2.22639e-014 -1.00585e-013
lhumerus -33.7476 9.09301 76.5789
lradius 86.788
lwrist 20.3046
lhand -27.023 13.1731
lfingers 7.12502
lthumb -0.442274 43.1524
rfemur -24.7829 -25.0176 -10.8309
rtibia 76.9601
rfoot -14.3942 -16.734
rtoes -41.4803
lfemur -35.1655 35.0054 -9.06344
ltibia 62.9552
lfoot -19.6535 -10.1066
ltoes -12.7093
150
root -8.00481 13.5221 10.1036 -143.572 -74.4667 153.347
lowerback 30.5775 5.35907 -5.8919
upperback 8.15423 3.2581 -6.15111
thorax -7.47423 1.14394 -4.68619
lowerneck -3.33961 -5.34966 -14.577
upperneck -22.6295 -3.97356 32.8861
head -4.47451 -3.79559 14.4108
rclavicle -1.92821e-014 -4.17448e-014
rhumerus -14.7308 -18.8412 -55.5139
rradius 90.8562
rwrist -17.634
rhand -40.0594 61.7074
rfingers 7.12502
rthumb -13.0251 32.1341
lclavicle -1.92821e-014 -4.17448e-014
lhumerus -31.493 10.137 77.2821
lradius 88.1324
lwrist 19.976
lhand -28.7679 15.0759
lfingers 7.12502
lthumb -2.12751 45.0451
rfemur -25.5083 -24.9653 -9.43702
rtibia 75.6361
rfoot -16.8878 -19.4983
rtoes -35.6922
lfemur -37.0314 35.3991 -9.69176
ltibia 64.3305
lfoot -21.3596 -9.40601
ltoes -13.474
